<svg width="22" height="20" viewBox="0 0 22 20" fill="none" xmlns="http://www.w3.org/2000/svg">
<g clip-path="url(#clip0_1_464)">
<path d="M21.9785 5.88005C21.927 4.81738 21.7379 4.0868 21.4671 3.45374C21.1878 2.78176 20.758 2.18014 20.195 1.68002C19.6448 1.1721 18.9787 0.777435 18.2481 0.527447C17.5477 0.281274 16.7482 0.109427 15.5793 0.0625732C14.4016 0.0117516 14.0277 0 11.0408 0C8.05393 0 7.68006 0.0117516 6.50675 0.0586052C5.33781 0.105459 4.53417 0.277459 3.83797 0.523479C3.09863 0.777435 2.43685 1.16814 1.88671 1.68002C1.32801 2.18014 0.894041 2.78573 0.618887 3.44992C0.348098 4.0868 0.159066 4.81341 0.107527 5.87609C0.051623 6.9467 0.0386963 7.28658 0.0386963 10.002C0.0386963 12.7173 0.051623 13.0572 0.103162 14.1239C0.154701 15.1865 0.343901 15.9171 0.61469 16.5502C0.894041 17.2221 1.32801 17.8238 1.88671 18.3239C2.43685 18.8318 3.103 19.2265 3.83361 19.4765C4.53417 19.7226 5.33344 19.8945 6.50255 19.9413C7.67569 19.9883 8.04973 19.9999 11.0366 19.9999C14.0235 19.9999 14.3974 19.9883 15.5707 19.9413C16.7397 19.8945 17.5433 19.7226 18.2395 19.4765C19.718 18.9568 20.887 17.8941 21.4586 16.5502C21.7292 15.9133 21.9184 15.1865 21.9699 14.1239C22.0215 13.0572 22.0344 12.7173 22.0344 10.002C22.0344 7.28658 22.03 6.9467 21.9785 5.88005ZM19.9974 14.0457C19.95 15.0225 19.7696 15.5499 19.6191 15.9015C19.2495 16.7728 18.4888 17.4643 17.5304 17.8004C17.1436 17.9372 16.5592 18.1012 15.489 18.1441C14.3286 18.1911 13.9806 18.2027 11.0452 18.2027C8.10983 18.2027 7.75745 18.1911 6.60127 18.1441C5.52684 18.1012 4.94665 17.9372 4.55985 17.8004C4.08291 17.6402 3.64877 17.3862 3.29639 17.0541C2.93109 16.7298 2.65174 16.3391 2.47546 15.9055C2.32504 15.5539 2.14457 15.0225 2.0974 14.0497C2.04569 12.9948 2.03293 12.6783 2.03293 10.0097C2.03293 7.34122 2.04569 7.02087 2.0974 5.96995C2.14457 4.99319 2.32504 4.46575 2.47546 4.11412C2.65174 3.68038 2.93109 3.28586 3.30076 2.96536C3.65734 2.63327 4.08711 2.37931 4.56422 2.21921C4.95101 2.08247 5.53557 1.9184 6.60563 1.87537C7.76601 1.82851 8.1142 1.81676 11.0494 1.81676C13.9891 1.81676 14.3371 1.82851 15.4933 1.87537C16.5678 1.9184 17.1479 2.08247 17.5347 2.21921C18.0117 2.37931 18.4458 2.63327 18.7982 2.96536C19.1635 3.28967 19.4429 3.68038 19.6191 4.11412C19.7696 4.46575 19.95 4.99701 19.9974 5.96995C20.0489 7.02484 20.0618 7.34122 20.0618 10.0097C20.0618 12.6783 20.0489 12.9908 19.9974 14.0457Z" fill="white"/>
<path d="M11.0408 4.8642C7.92074 4.8642 5.38928 7.16537 5.38928 10.0019C5.38928 12.8385 7.92074 15.1396 11.0408 15.1396C14.161 15.1396 16.6923 12.8385 16.6923 10.0019C16.6923 7.16537 14.161 4.8642 11.0408 4.8642ZM11.0408 13.3346C9.01665 13.3346 7.37479 11.8422 7.37479 10.0019C7.37479 8.16165 9.01665 6.66921 11.0408 6.66921C13.0651 6.66921 14.7068 8.16165 14.7068 10.0019C14.7068 11.8422 13.0651 13.3346 11.0408 13.3346V13.3346Z" fill="white"/>
<path d="M18.2353 4.6611C18.2353 5.32346 17.6446 5.86052 16.9158 5.86052C16.1872 5.86052 15.5964 5.32346 15.5964 4.6611C15.5964 3.99858 16.1872 3.46167 16.9158 3.46167C17.6446 3.46167 18.2353 3.99858 18.2353 4.6611V4.6611Z" fill="white"/>
</g>
<defs>
<clipPath id="clip0_1_464">
<rect width="22" height="20" fill="white"/>
</clipPath>
</defs>
</svg>
